<mxfile host="app.diagrams.net" modified="2023-12-01T07:20:45.195Z" agent="Mozilla/5.0 (Windows NT 10.0; Win64; x64) AppleWebKit/537.36 (KHTML, like Gecko) Chrome/119.0.0.0 Safari/537.36" etag="MALbdjmiVdmunKm-imfr" version="22.1.5" type="device">
  <diagram id="a9ztu3i12gvT3kUVwo38" name="BT6">
    <mxGraphModel dx="880" dy="2772" grid="1" gridSize="10" guides="1" tooltips="1" connect="1" arrows="1" fold="1" page="1" pageScale="1" pageWidth="827" pageHeight="1169" math="0" shadow="0">
      <root>
        <mxCell id="0" />
        <mxCell id="1" parent="0" />
        <mxCell id="exdaTwkjRSABiNrKdRwK-1" value="" style="edgeStyle=orthogonalEdgeStyle;rounded=0;orthogonalLoop=1;jettySize=auto;html=1;" parent="1" source="exdaTwkjRSABiNrKdRwK-2" target="exdaTwkjRSABiNrKdRwK-29" edge="1">
          <mxGeometry relative="1" as="geometry" />
        </mxCell>
        <mxCell id="exdaTwkjRSABiNrKdRwK-2" value="start" style="ellipse;whiteSpace=wrap;html=1;" parent="1" vertex="1">
          <mxGeometry x="354" y="20" width="120" height="80" as="geometry" />
        </mxCell>
        <mxCell id="exdaTwkjRSABiNrKdRwK-3" value="" style="edgeStyle=orthogonalEdgeStyle;rounded=0;orthogonalLoop=1;jettySize=auto;html=1;" parent="1" source="exdaTwkjRSABiNrKdRwK-4" target="exdaTwkjRSABiNrKdRwK-8" edge="1">
          <mxGeometry relative="1" as="geometry" />
        </mxCell>
        <mxCell id="exdaTwkjRSABiNrKdRwK-4" value="increasea(int a[],int n)" style="ellipse;whiteSpace=wrap;html=1;" parent="1" vertex="1">
          <mxGeometry x="500" y="-280" width="120" height="80" as="geometry" />
        </mxCell>
        <mxCell id="exdaTwkjRSABiNrKdRwK-5" style="edgeStyle=orthogonalEdgeStyle;rounded=0;orthogonalLoop=1;jettySize=auto;html=1;entryX=0;entryY=0.75;entryDx=0;entryDy=0;" parent="1" source="exdaTwkjRSABiNrKdRwK-6" target="exdaTwkjRSABiNrKdRwK-31" edge="1">
          <mxGeometry relative="1" as="geometry" />
        </mxCell>
        <mxCell id="exdaTwkjRSABiNrKdRwK-6" value="decrese(int[a], int n)" style="ellipse;whiteSpace=wrap;html=1;" parent="1" vertex="1">
          <mxGeometry x="400" y="-960" width="220" height="90" as="geometry" />
        </mxCell>
        <mxCell id="exdaTwkjRSABiNrKdRwK-7" value="" style="edgeStyle=orthogonalEdgeStyle;rounded=0;orthogonalLoop=1;jettySize=auto;html=1;" parent="1" source="exdaTwkjRSABiNrKdRwK-8" target="exdaTwkjRSABiNrKdRwK-21" edge="1">
          <mxGeometry relative="1" as="geometry">
            <mxPoint x="910" y="-240" as="targetPoint" />
          </mxGeometry>
        </mxCell>
        <mxCell id="exdaTwkjRSABiNrKdRwK-8" value="int i=0,j=0;" style="whiteSpace=wrap;html=1;" parent="1" vertex="1">
          <mxGeometry x="700" y="-270" width="120" height="60" as="geometry" />
        </mxCell>
        <mxCell id="exdaTwkjRSABiNrKdRwK-9" value="" style="edgeStyle=orthogonalEdgeStyle;rounded=0;orthogonalLoop=1;jettySize=auto;html=1;" parent="1" source="exdaTwkjRSABiNrKdRwK-13" target="exdaTwkjRSABiNrKdRwK-15" edge="1">
          <mxGeometry relative="1" as="geometry" />
        </mxCell>
        <mxCell id="exdaTwkjRSABiNrKdRwK-10" value="true" style="edgeLabel;html=1;align=center;verticalAlign=middle;resizable=0;points=[];" parent="exdaTwkjRSABiNrKdRwK-9" vertex="1" connectable="0">
          <mxGeometry y="-2" relative="1" as="geometry">
            <mxPoint as="offset" />
          </mxGeometry>
        </mxCell>
        <mxCell id="exdaTwkjRSABiNrKdRwK-11" value="" style="edgeStyle=orthogonalEdgeStyle;rounded=0;orthogonalLoop=1;jettySize=auto;html=1;" parent="1" source="exdaTwkjRSABiNrKdRwK-13" target="exdaTwkjRSABiNrKdRwK-17" edge="1">
          <mxGeometry relative="1" as="geometry" />
        </mxCell>
        <mxCell id="exdaTwkjRSABiNrKdRwK-12" value="false" style="edgeLabel;html=1;align=center;verticalAlign=middle;resizable=0;points=[];" parent="exdaTwkjRSABiNrKdRwK-11" vertex="1" connectable="0">
          <mxGeometry x="0.0222" relative="1" as="geometry">
            <mxPoint as="offset" />
          </mxGeometry>
        </mxCell>
        <mxCell id="exdaTwkjRSABiNrKdRwK-13" value="a[j]&amp;lt;a[j+1]" style="rhombus;whiteSpace=wrap;html=1;" parent="1" vertex="1">
          <mxGeometry x="1260" y="-280" width="120" height="80" as="geometry" />
        </mxCell>
        <mxCell id="exdaTwkjRSABiNrKdRwK-14" style="edgeStyle=orthogonalEdgeStyle;rounded=0;orthogonalLoop=1;jettySize=auto;html=1;entryX=1;entryY=0.5;entryDx=0;entryDy=0;" parent="1" source="exdaTwkjRSABiNrKdRwK-15" target="exdaTwkjRSABiNrKdRwK-17" edge="1">
          <mxGeometry relative="1" as="geometry">
            <mxPoint x="1545" y="-50" as="targetPoint" />
            <Array as="points">
              <mxPoint x="1545" y="-130" />
              <mxPoint x="1546" y="-130" />
              <mxPoint x="1546" y="-80" />
            </Array>
          </mxGeometry>
        </mxCell>
        <mxCell id="exdaTwkjRSABiNrKdRwK-15" value="&lt;span style=&quot;background-color: rgb(30, 30, 30); font-family: Consolas, &amp;quot;Courier New&amp;quot;, monospace; font-size: 14px;&quot;&gt;&lt;font color=&quot;#569cd6&quot;&gt;temp=a[j]&lt;br&gt;&lt;/font&gt;a[j]=a[j+1]&lt;br&gt;a[j+1]=temp&lt;br&gt;&lt;/span&gt;" style="whiteSpace=wrap;html=1;" parent="1" vertex="1">
          <mxGeometry x="1460" y="-270" width="170" height="60" as="geometry" />
        </mxCell>
        <mxCell id="exdaTwkjRSABiNrKdRwK-16" style="edgeStyle=orthogonalEdgeStyle;rounded=0;orthogonalLoop=1;jettySize=auto;html=1;" parent="1" source="exdaTwkjRSABiNrKdRwK-17" edge="1">
          <mxGeometry relative="1" as="geometry">
            <mxPoint x="1000" y="-240" as="targetPoint" />
          </mxGeometry>
        </mxCell>
        <mxCell id="exdaTwkjRSABiNrKdRwK-17" value="j++" style="whiteSpace=wrap;html=1;" parent="1" vertex="1">
          <mxGeometry x="1260" y="-110" width="120" height="60" as="geometry" />
        </mxCell>
        <mxCell id="exdaTwkjRSABiNrKdRwK-18" value="" style="edgeStyle=orthogonalEdgeStyle;rounded=0;orthogonalLoop=1;jettySize=auto;html=1;" parent="1" source="exdaTwkjRSABiNrKdRwK-21" target="exdaTwkjRSABiNrKdRwK-24" edge="1">
          <mxGeometry relative="1" as="geometry" />
        </mxCell>
        <mxCell id="exdaTwkjRSABiNrKdRwK-19" value="true" style="edgeLabel;html=1;align=center;verticalAlign=middle;resizable=0;points=[];" parent="exdaTwkjRSABiNrKdRwK-18" vertex="1" connectable="0">
          <mxGeometry x="-0.225" relative="1" as="geometry">
            <mxPoint as="offset" />
          </mxGeometry>
        </mxCell>
        <mxCell id="exdaTwkjRSABiNrKdRwK-20" value="" style="edgeStyle=orthogonalEdgeStyle;rounded=0;orthogonalLoop=1;jettySize=auto;html=1;" parent="1" source="exdaTwkjRSABiNrKdRwK-21" target="exdaTwkjRSABiNrKdRwK-27" edge="1">
          <mxGeometry relative="1" as="geometry" />
        </mxCell>
        <mxCell id="exdaTwkjRSABiNrKdRwK-21" value="i&amp;lt;n-1" style="rhombus;whiteSpace=wrap;html=1;" parent="1" vertex="1">
          <mxGeometry x="870" y="-280" width="80" height="80" as="geometry" />
        </mxCell>
        <mxCell id="exdaTwkjRSABiNrKdRwK-22" value="true" style="edgeStyle=orthogonalEdgeStyle;rounded=0;orthogonalLoop=1;jettySize=auto;html=1;entryX=0;entryY=0.5;entryDx=0;entryDy=0;" parent="1" source="exdaTwkjRSABiNrKdRwK-24" target="exdaTwkjRSABiNrKdRwK-13" edge="1">
          <mxGeometry relative="1" as="geometry" />
        </mxCell>
        <mxCell id="exdaTwkjRSABiNrKdRwK-23" value="false" style="edgeStyle=orthogonalEdgeStyle;rounded=0;orthogonalLoop=1;jettySize=auto;html=1;" parent="1" source="exdaTwkjRSABiNrKdRwK-24" target="exdaTwkjRSABiNrKdRwK-26" edge="1">
          <mxGeometry relative="1" as="geometry" />
        </mxCell>
        <mxCell id="exdaTwkjRSABiNrKdRwK-24" value="j&amp;lt;n-i-1" style="rhombus;whiteSpace=wrap;html=1;" parent="1" vertex="1">
          <mxGeometry x="1030" y="-280" width="130" height="80" as="geometry" />
        </mxCell>
        <mxCell id="exdaTwkjRSABiNrKdRwK-25" style="edgeStyle=orthogonalEdgeStyle;rounded=0;orthogonalLoop=1;jettySize=auto;html=1;" parent="1" source="exdaTwkjRSABiNrKdRwK-26" edge="1">
          <mxGeometry relative="1" as="geometry">
            <mxPoint x="850" y="-240" as="targetPoint" />
          </mxGeometry>
        </mxCell>
        <mxCell id="exdaTwkjRSABiNrKdRwK-26" value="i++" style="whiteSpace=wrap;html=1;" parent="1" vertex="1">
          <mxGeometry x="1035" y="-430" width="120" height="60" as="geometry" />
        </mxCell>
        <mxCell id="exdaTwkjRSABiNrKdRwK-27" value="a[i]" style="shape=parallelogram;perimeter=parallelogramPerimeter;whiteSpace=wrap;html=1;fixedSize=1;" parent="1" vertex="1">
          <mxGeometry x="850" y="110" width="120" height="60" as="geometry" />
        </mxCell>
        <mxCell id="exdaTwkjRSABiNrKdRwK-28" value="" style="edgeStyle=orthogonalEdgeStyle;rounded=0;orthogonalLoop=1;jettySize=auto;html=1;" parent="1" source="exdaTwkjRSABiNrKdRwK-29" target="exdaTwkjRSABiNrKdRwK-52" edge="1">
          <mxGeometry relative="1" as="geometry">
            <mxPoint x="414" y="519.9999999999995" as="targetPoint" />
          </mxGeometry>
        </mxCell>
        <mxCell id="exdaTwkjRSABiNrKdRwK-29" value="n,i,count=0,current=0" style="shape=parallelogram;perimeter=parallelogramPerimeter;whiteSpace=wrap;html=1;fixedSize=1;" parent="1" vertex="1">
          <mxGeometry x="254" y="240" width="320" height="160" as="geometry" />
        </mxCell>
        <mxCell id="exdaTwkjRSABiNrKdRwK-30" value="" style="edgeStyle=orthogonalEdgeStyle;rounded=0;orthogonalLoop=1;jettySize=auto;html=1;" parent="1" source="exdaTwkjRSABiNrKdRwK-31" target="exdaTwkjRSABiNrKdRwK-44" edge="1">
          <mxGeometry relative="1" as="geometry">
            <mxPoint x="900" y="-1020" as="targetPoint" />
          </mxGeometry>
        </mxCell>
        <mxCell id="exdaTwkjRSABiNrKdRwK-31" value="int i=0,j=0;" style="whiteSpace=wrap;html=1;" parent="1" vertex="1">
          <mxGeometry x="690" y="-1050" width="120" height="60" as="geometry" />
        </mxCell>
        <mxCell id="exdaTwkjRSABiNrKdRwK-32" value="" style="edgeStyle=orthogonalEdgeStyle;rounded=0;orthogonalLoop=1;jettySize=auto;html=1;" parent="1" source="exdaTwkjRSABiNrKdRwK-36" target="exdaTwkjRSABiNrKdRwK-38" edge="1">
          <mxGeometry relative="1" as="geometry" />
        </mxCell>
        <mxCell id="exdaTwkjRSABiNrKdRwK-33" value="true" style="edgeLabel;html=1;align=center;verticalAlign=middle;resizable=0;points=[];" parent="exdaTwkjRSABiNrKdRwK-32" vertex="1" connectable="0">
          <mxGeometry y="-2" relative="1" as="geometry">
            <mxPoint as="offset" />
          </mxGeometry>
        </mxCell>
        <mxCell id="exdaTwkjRSABiNrKdRwK-34" value="" style="edgeStyle=orthogonalEdgeStyle;rounded=0;orthogonalLoop=1;jettySize=auto;html=1;" parent="1" source="exdaTwkjRSABiNrKdRwK-36" target="exdaTwkjRSABiNrKdRwK-40" edge="1">
          <mxGeometry relative="1" as="geometry" />
        </mxCell>
        <mxCell id="exdaTwkjRSABiNrKdRwK-35" value="false" style="edgeLabel;html=1;align=center;verticalAlign=middle;resizable=0;points=[];" parent="exdaTwkjRSABiNrKdRwK-34" vertex="1" connectable="0">
          <mxGeometry x="0.0222" relative="1" as="geometry">
            <mxPoint as="offset" />
          </mxGeometry>
        </mxCell>
        <mxCell id="exdaTwkjRSABiNrKdRwK-36" value="a[j]&amp;gt;a[j+1]" style="rhombus;whiteSpace=wrap;html=1;" parent="1" vertex="1">
          <mxGeometry x="1250" y="-1060" width="120" height="80" as="geometry" />
        </mxCell>
        <mxCell id="exdaTwkjRSABiNrKdRwK-37" style="edgeStyle=orthogonalEdgeStyle;rounded=0;orthogonalLoop=1;jettySize=auto;html=1;entryX=1;entryY=0.5;entryDx=0;entryDy=0;" parent="1" source="exdaTwkjRSABiNrKdRwK-38" target="exdaTwkjRSABiNrKdRwK-40" edge="1">
          <mxGeometry relative="1" as="geometry">
            <mxPoint x="1535" y="-830" as="targetPoint" />
            <Array as="points">
              <mxPoint x="1535" y="-910" />
              <mxPoint x="1536" y="-910" />
              <mxPoint x="1536" y="-860" />
            </Array>
          </mxGeometry>
        </mxCell>
        <mxCell id="exdaTwkjRSABiNrKdRwK-38" value="&lt;span style=&quot;background-color: rgb(30, 30, 30); font-family: Consolas, &amp;quot;Courier New&amp;quot;, monospace; font-size: 14px;&quot;&gt;&lt;font color=&quot;#569cd6&quot;&gt;temp=a[j]&lt;br&gt;&lt;/font&gt;a[j]=a[j+1]&lt;br&gt;a[j+1]=temp&lt;br&gt;&lt;/span&gt;" style="whiteSpace=wrap;html=1;" parent="1" vertex="1">
          <mxGeometry x="1450" y="-1050" width="170" height="60" as="geometry" />
        </mxCell>
        <mxCell id="exdaTwkjRSABiNrKdRwK-39" style="edgeStyle=orthogonalEdgeStyle;rounded=0;orthogonalLoop=1;jettySize=auto;html=1;" parent="1" source="exdaTwkjRSABiNrKdRwK-40" edge="1">
          <mxGeometry relative="1" as="geometry">
            <mxPoint x="990" y="-1020" as="targetPoint" />
          </mxGeometry>
        </mxCell>
        <mxCell id="exdaTwkjRSABiNrKdRwK-40" value="j++" style="whiteSpace=wrap;html=1;" parent="1" vertex="1">
          <mxGeometry x="1250" y="-890" width="120" height="60" as="geometry" />
        </mxCell>
        <mxCell id="exdaTwkjRSABiNrKdRwK-41" value="" style="edgeStyle=orthogonalEdgeStyle;rounded=0;orthogonalLoop=1;jettySize=auto;html=1;" parent="1" source="exdaTwkjRSABiNrKdRwK-44" target="exdaTwkjRSABiNrKdRwK-47" edge="1">
          <mxGeometry relative="1" as="geometry" />
        </mxCell>
        <mxCell id="exdaTwkjRSABiNrKdRwK-42" value="true" style="edgeLabel;html=1;align=center;verticalAlign=middle;resizable=0;points=[];" parent="exdaTwkjRSABiNrKdRwK-41" vertex="1" connectable="0">
          <mxGeometry x="-0.225" relative="1" as="geometry">
            <mxPoint as="offset" />
          </mxGeometry>
        </mxCell>
        <mxCell id="exdaTwkjRSABiNrKdRwK-43" value="" style="edgeStyle=orthogonalEdgeStyle;rounded=0;orthogonalLoop=1;jettySize=auto;html=1;" parent="1" source="exdaTwkjRSABiNrKdRwK-44" target="exdaTwkjRSABiNrKdRwK-50" edge="1">
          <mxGeometry relative="1" as="geometry" />
        </mxCell>
        <mxCell id="exdaTwkjRSABiNrKdRwK-44" value="i&amp;lt;n-1" style="rhombus;whiteSpace=wrap;html=1;" parent="1" vertex="1">
          <mxGeometry x="860" y="-1060" width="80" height="80" as="geometry" />
        </mxCell>
        <mxCell id="exdaTwkjRSABiNrKdRwK-45" value="true" style="edgeStyle=orthogonalEdgeStyle;rounded=0;orthogonalLoop=1;jettySize=auto;html=1;entryX=0;entryY=0.5;entryDx=0;entryDy=0;" parent="1" source="exdaTwkjRSABiNrKdRwK-47" target="exdaTwkjRSABiNrKdRwK-36" edge="1">
          <mxGeometry relative="1" as="geometry" />
        </mxCell>
        <mxCell id="exdaTwkjRSABiNrKdRwK-46" value="false" style="edgeStyle=orthogonalEdgeStyle;rounded=0;orthogonalLoop=1;jettySize=auto;html=1;" parent="1" source="exdaTwkjRSABiNrKdRwK-47" target="exdaTwkjRSABiNrKdRwK-49" edge="1">
          <mxGeometry relative="1" as="geometry" />
        </mxCell>
        <mxCell id="exdaTwkjRSABiNrKdRwK-47" value="j&amp;lt;n-i-1" style="rhombus;whiteSpace=wrap;html=1;" parent="1" vertex="1">
          <mxGeometry x="1020" y="-1060" width="130" height="80" as="geometry" />
        </mxCell>
        <mxCell id="exdaTwkjRSABiNrKdRwK-48" style="edgeStyle=orthogonalEdgeStyle;rounded=0;orthogonalLoop=1;jettySize=auto;html=1;" parent="1" source="exdaTwkjRSABiNrKdRwK-49" edge="1">
          <mxGeometry relative="1" as="geometry">
            <mxPoint x="840" y="-1020" as="targetPoint" />
          </mxGeometry>
        </mxCell>
        <mxCell id="exdaTwkjRSABiNrKdRwK-49" value="i++" style="whiteSpace=wrap;html=1;" parent="1" vertex="1">
          <mxGeometry x="1025" y="-1210" width="120" height="60" as="geometry" />
        </mxCell>
        <mxCell id="exdaTwkjRSABiNrKdRwK-50" value="a[i]" style="shape=parallelogram;perimeter=parallelogramPerimeter;whiteSpace=wrap;html=1;fixedSize=1;" parent="1" vertex="1">
          <mxGeometry x="840" y="-670" width="120" height="60" as="geometry" />
        </mxCell>
        <mxCell id="exdaTwkjRSABiNrKdRwK-51" value="" style="edgeStyle=orthogonalEdgeStyle;rounded=0;orthogonalLoop=1;jettySize=auto;html=1;" parent="1" source="exdaTwkjRSABiNrKdRwK-52" target="exdaTwkjRSABiNrKdRwK-54" edge="1">
          <mxGeometry relative="1" as="geometry" />
        </mxCell>
        <mxCell id="exdaTwkjRSABiNrKdRwK-52" value="choice" style="shape=parallelogram;perimeter=parallelogramPerimeter;whiteSpace=wrap;html=1;fixedSize=1;" parent="1" vertex="1">
          <mxGeometry x="354" y="489.99999999999955" width="120" height="60" as="geometry" />
        </mxCell>
        <mxCell id="exdaTwkjRSABiNrKdRwK-53" value="" style="edgeStyle=orthogonalEdgeStyle;rounded=0;orthogonalLoop=1;jettySize=auto;html=1;" parent="1" source="exdaTwkjRSABiNrKdRwK-54" target="exdaTwkjRSABiNrKdRwK-76" edge="1">
          <mxGeometry relative="1" as="geometry" />
        </mxCell>
        <mxCell id="exdaTwkjRSABiNrKdRwK-54" value="choice==1" style="rhombus;whiteSpace=wrap;html=1;" parent="1" vertex="1">
          <mxGeometry x="374" y="619.9999999999995" width="80" height="80" as="geometry" />
        </mxCell>
        <mxCell id="exdaTwkjRSABiNrKdRwK-55" value="" style="edgeStyle=orthogonalEdgeStyle;rounded=0;orthogonalLoop=1;jettySize=auto;html=1;exitX=0.5;exitY=1;exitDx=0;exitDy=0;" parent="1" source="exdaTwkjRSABiNrKdRwK-54" target="exdaTwkjRSABiNrKdRwK-58" edge="1">
          <mxGeometry relative="1" as="geometry">
            <mxPoint x="414" y="700" as="sourcePoint" />
          </mxGeometry>
        </mxCell>
        <mxCell id="exdaTwkjRSABiNrKdRwK-56" value="false" style="edgeLabel;html=1;align=center;verticalAlign=middle;resizable=0;points=[];" parent="exdaTwkjRSABiNrKdRwK-55" vertex="1" connectable="0">
          <mxGeometry x="0.0449" relative="1" as="geometry">
            <mxPoint y="-1" as="offset" />
          </mxGeometry>
        </mxCell>
        <mxCell id="exdaTwkjRSABiNrKdRwK-57" style="edgeStyle=orthogonalEdgeStyle;rounded=0;orthogonalLoop=1;jettySize=auto;html=1;" parent="1" source="exdaTwkjRSABiNrKdRwK-58" target="exdaTwkjRSABiNrKdRwK-86" edge="1">
          <mxGeometry relative="1" as="geometry" />
        </mxCell>
        <mxCell id="exdaTwkjRSABiNrKdRwK-58" value="choice==2" style="rhombus;whiteSpace=wrap;html=1;" parent="1" vertex="1">
          <mxGeometry x="374" y="959.9999999999995" width="80" height="80" as="geometry" />
        </mxCell>
        <mxCell id="exdaTwkjRSABiNrKdRwK-59" value="" style="edgeStyle=orthogonalEdgeStyle;rounded=0;orthogonalLoop=1;jettySize=auto;html=1;exitX=0.5;exitY=1;exitDx=0;exitDy=0;" parent="1" source="exdaTwkjRSABiNrKdRwK-58" target="exdaTwkjRSABiNrKdRwK-61" edge="1">
          <mxGeometry relative="1" as="geometry">
            <mxPoint x="414" y="1070" as="sourcePoint" />
          </mxGeometry>
        </mxCell>
        <mxCell id="exdaTwkjRSABiNrKdRwK-60" value="" style="edgeStyle=orthogonalEdgeStyle;rounded=0;orthogonalLoop=1;jettySize=auto;html=1;" parent="1" source="exdaTwkjRSABiNrKdRwK-61" target="exdaTwkjRSABiNrKdRwK-94" edge="1">
          <mxGeometry relative="1" as="geometry" />
        </mxCell>
        <mxCell id="exdaTwkjRSABiNrKdRwK-61" value="choice==3" style="rhombus;whiteSpace=wrap;html=1;" parent="1" vertex="1">
          <mxGeometry x="374" y="1349.9999999999995" width="80" height="80" as="geometry" />
        </mxCell>
        <mxCell id="exdaTwkjRSABiNrKdRwK-62" value="" style="edgeStyle=orthogonalEdgeStyle;rounded=0;orthogonalLoop=1;jettySize=auto;html=1;exitX=0.5;exitY=1;exitDx=0;exitDy=0;" parent="1" source="exdaTwkjRSABiNrKdRwK-61" target="exdaTwkjRSABiNrKdRwK-64" edge="1">
          <mxGeometry relative="1" as="geometry">
            <mxPoint x="414" y="1500" as="sourcePoint" />
          </mxGeometry>
        </mxCell>
        <mxCell id="exdaTwkjRSABiNrKdRwK-63" value="" style="edgeStyle=orthogonalEdgeStyle;rounded=0;orthogonalLoop=1;jettySize=auto;html=1;" parent="1" source="exdaTwkjRSABiNrKdRwK-64" target="exdaTwkjRSABiNrKdRwK-116" edge="1">
          <mxGeometry relative="1" as="geometry" />
        </mxCell>
        <mxCell id="exdaTwkjRSABiNrKdRwK-64" value="choice==4" style="rhombus;whiteSpace=wrap;html=1;" parent="1" vertex="1">
          <mxGeometry x="373" y="1749.9999999999995" width="80" height="80" as="geometry" />
        </mxCell>
        <mxCell id="exdaTwkjRSABiNrKdRwK-65" value="" style="edgeStyle=orthogonalEdgeStyle;rounded=0;orthogonalLoop=1;jettySize=auto;html=1;exitX=0.5;exitY=1;exitDx=0;exitDy=0;" parent="1" source="exdaTwkjRSABiNrKdRwK-64" target="exdaTwkjRSABiNrKdRwK-67" edge="1">
          <mxGeometry relative="1" as="geometry">
            <mxPoint x="413" y="1870" as="sourcePoint" />
          </mxGeometry>
        </mxCell>
        <mxCell id="exdaTwkjRSABiNrKdRwK-66" value="" style="edgeStyle=orthogonalEdgeStyle;rounded=0;orthogonalLoop=1;jettySize=auto;html=1;" parent="1" source="exdaTwkjRSABiNrKdRwK-67" target="exdaTwkjRSABiNrKdRwK-119" edge="1">
          <mxGeometry relative="1" as="geometry" />
        </mxCell>
        <mxCell id="exdaTwkjRSABiNrKdRwK-67" value="choice==5" style="rhombus;whiteSpace=wrap;html=1;" parent="1" vertex="1">
          <mxGeometry x="373" y="2129.9999999999995" width="80" height="80" as="geometry" />
        </mxCell>
        <mxCell id="exdaTwkjRSABiNrKdRwK-68" value="false" style="edgeLabel;html=1;align=center;verticalAlign=middle;resizable=0;points=[];" parent="1" vertex="1" connectable="0">
          <mxGeometry x="424" y="1330.0028571428575" as="geometry">
            <mxPoint x="-10" y="150" as="offset" />
          </mxGeometry>
        </mxCell>
        <mxCell id="exdaTwkjRSABiNrKdRwK-69" value="false" style="edgeLabel;html=1;align=center;verticalAlign=middle;resizable=0;points=[];" parent="1" vertex="1" connectable="0">
          <mxGeometry x="320" y="770.0028571428574" as="geometry">
            <mxPoint x="89" y="307" as="offset" />
          </mxGeometry>
        </mxCell>
        <mxCell id="exdaTwkjRSABiNrKdRwK-70" value="false" style="edgeLabel;html=1;align=center;verticalAlign=middle;resizable=0;points=[];" parent="1" vertex="1" connectable="0">
          <mxGeometry x="320" y="1580.0028571428575" as="geometry">
            <mxPoint x="89" y="307" as="offset" />
          </mxGeometry>
        </mxCell>
        <mxCell id="exdaTwkjRSABiNrKdRwK-71" value="" style="edgeStyle=orthogonalEdgeStyle;rounded=0;orthogonalLoop=1;jettySize=auto;html=1;exitX=0.5;exitY=1;exitDx=0;exitDy=0;" parent="1" source="exdaTwkjRSABiNrKdRwK-67" target="exdaTwkjRSABiNrKdRwK-74" edge="1">
          <mxGeometry relative="1" as="geometry">
            <mxPoint x="413" y="2220" as="sourcePoint" />
          </mxGeometry>
        </mxCell>
        <mxCell id="exdaTwkjRSABiNrKdRwK-72" style="edgeStyle=orthogonalEdgeStyle;rounded=0;orthogonalLoop=1;jettySize=auto;html=1;" parent="1" source="exdaTwkjRSABiNrKdRwK-74" target="exdaTwkjRSABiNrKdRwK-128" edge="1">
          <mxGeometry relative="1" as="geometry" />
        </mxCell>
        <mxCell id="exdaTwkjRSABiNrKdRwK-73" value="" style="edgeStyle=orthogonalEdgeStyle;rounded=0;orthogonalLoop=1;jettySize=auto;html=1;" parent="1" source="exdaTwkjRSABiNrKdRwK-74" target="exdaTwkjRSABiNrKdRwK-139" edge="1">
          <mxGeometry relative="1" as="geometry" />
        </mxCell>
        <mxCell id="exdaTwkjRSABiNrKdRwK-74" value="choice==6" style="rhombus;whiteSpace=wrap;html=1;" parent="1" vertex="1">
          <mxGeometry x="373" y="2801.9999999999995" width="80" height="80" as="geometry" />
        </mxCell>
        <mxCell id="exdaTwkjRSABiNrKdRwK-75" value="" style="edgeStyle=orthogonalEdgeStyle;rounded=0;orthogonalLoop=1;jettySize=auto;html=1;" parent="1" source="exdaTwkjRSABiNrKdRwK-76" target="exdaTwkjRSABiNrKdRwK-79" edge="1">
          <mxGeometry relative="1" as="geometry" />
        </mxCell>
        <mxCell id="exdaTwkjRSABiNrKdRwK-76" value="n&lt;br&gt;i=0" style="shape=parallelogram;perimeter=parallelogramPerimeter;whiteSpace=wrap;html=1;fixedSize=1;" parent="1" vertex="1">
          <mxGeometry x="514" y="629.9999999999995" width="120" height="60" as="geometry" />
        </mxCell>
        <mxCell id="exdaTwkjRSABiNrKdRwK-77" value="" style="edgeStyle=orthogonalEdgeStyle;rounded=0;orthogonalLoop=1;jettySize=auto;html=1;" parent="1" source="exdaTwkjRSABiNrKdRwK-79" target="exdaTwkjRSABiNrKdRwK-81" edge="1">
          <mxGeometry relative="1" as="geometry" />
        </mxCell>
        <mxCell id="exdaTwkjRSABiNrKdRwK-78" style="edgeStyle=orthogonalEdgeStyle;rounded=0;orthogonalLoop=1;jettySize=auto;html=1;" parent="1" source="exdaTwkjRSABiNrKdRwK-79" edge="1">
          <mxGeometry relative="1" as="geometry">
            <mxPoint x="420" y="450" as="targetPoint" />
            <Array as="points">
              <mxPoint x="775" y="790" />
              <mxPoint x="1670" y="790" />
              <mxPoint x="1670" y="180" />
              <mxPoint x="630" y="180" />
              <mxPoint x="630" y="450" />
            </Array>
          </mxGeometry>
        </mxCell>
        <mxCell id="exdaTwkjRSABiNrKdRwK-79" value="i&amp;lt;n" style="rhombus;whiteSpace=wrap;html=1;" parent="1" vertex="1">
          <mxGeometry x="734" y="619.9999999999995" width="80" height="80" as="geometry" />
        </mxCell>
        <mxCell id="exdaTwkjRSABiNrKdRwK-80" value="" style="edgeStyle=orthogonalEdgeStyle;rounded=0;orthogonalLoop=1;jettySize=auto;html=1;" parent="1" source="exdaTwkjRSABiNrKdRwK-81" target="exdaTwkjRSABiNrKdRwK-83" edge="1">
          <mxGeometry relative="1" as="geometry" />
        </mxCell>
        <mxCell id="exdaTwkjRSABiNrKdRwK-81" value="a[i]&lt;br&gt;current++" style="shape=parallelogram;perimeter=parallelogramPerimeter;whiteSpace=wrap;html=1;fixedSize=1;" parent="1" vertex="1">
          <mxGeometry x="874" y="629.9999999999995" width="120" height="60" as="geometry" />
        </mxCell>
        <mxCell id="exdaTwkjRSABiNrKdRwK-82" style="edgeStyle=orthogonalEdgeStyle;rounded=0;orthogonalLoop=1;jettySize=auto;html=1;" parent="1" source="exdaTwkjRSABiNrKdRwK-83" edge="1">
          <mxGeometry relative="1" as="geometry">
            <mxPoint x="690" y="650" as="targetPoint" />
            <Array as="points">
              <mxPoint x="1134" y="511" />
              <mxPoint x="1130" y="511" />
              <mxPoint x="1130" y="500" />
              <mxPoint x="690" y="500" />
            </Array>
          </mxGeometry>
        </mxCell>
        <mxCell id="exdaTwkjRSABiNrKdRwK-83" value="i++" style="whiteSpace=wrap;html=1;" parent="1" vertex="1">
          <mxGeometry x="1074" y="629.9999999999995" width="120" height="60" as="geometry" />
        </mxCell>
        <mxCell id="exdaTwkjRSABiNrKdRwK-84" value="" style="edgeStyle=orthogonalEdgeStyle;rounded=0;orthogonalLoop=1;jettySize=auto;html=1;" parent="1" source="exdaTwkjRSABiNrKdRwK-86" target="exdaTwkjRSABiNrKdRwK-88" edge="1">
          <mxGeometry relative="1" as="geometry" />
        </mxCell>
        <mxCell id="exdaTwkjRSABiNrKdRwK-85" style="edgeStyle=orthogonalEdgeStyle;rounded=0;orthogonalLoop=1;jettySize=auto;html=1;" parent="1" source="exdaTwkjRSABiNrKdRwK-86" edge="1">
          <mxGeometry relative="1" as="geometry">
            <mxPoint x="1670" y="740" as="targetPoint" />
            <Array as="points">
              <mxPoint x="580" y="1170" />
              <mxPoint x="1670" y="1170" />
            </Array>
          </mxGeometry>
        </mxCell>
        <mxCell id="exdaTwkjRSABiNrKdRwK-86" value="n&lt;br&gt;i=0" style="shape=parallelogram;perimeter=parallelogramPerimeter;whiteSpace=wrap;html=1;fixedSize=1;" parent="1" vertex="1">
          <mxGeometry x="520" y="979.9999999999995" width="120" height="60" as="geometry" />
        </mxCell>
        <mxCell id="exdaTwkjRSABiNrKdRwK-87" value="" style="edgeStyle=orthogonalEdgeStyle;rounded=0;orthogonalLoop=1;jettySize=auto;html=1;" parent="1" source="exdaTwkjRSABiNrKdRwK-88" target="exdaTwkjRSABiNrKdRwK-90" edge="1">
          <mxGeometry relative="1" as="geometry" />
        </mxCell>
        <mxCell id="exdaTwkjRSABiNrKdRwK-88" value="i&amp;lt;n" style="rhombus;whiteSpace=wrap;html=1;" parent="1" vertex="1">
          <mxGeometry x="740" y="969.9999999999995" width="80" height="80" as="geometry" />
        </mxCell>
        <mxCell id="exdaTwkjRSABiNrKdRwK-89" value="" style="edgeStyle=orthogonalEdgeStyle;rounded=0;orthogonalLoop=1;jettySize=auto;html=1;" parent="1" source="exdaTwkjRSABiNrKdRwK-90" target="exdaTwkjRSABiNrKdRwK-92" edge="1">
          <mxGeometry relative="1" as="geometry" />
        </mxCell>
        <mxCell id="exdaTwkjRSABiNrKdRwK-90" value="a[i]" style="shape=parallelogram;perimeter=parallelogramPerimeter;whiteSpace=wrap;html=1;fixedSize=1;" parent="1" vertex="1">
          <mxGeometry x="880" y="979.9999999999995" width="120" height="60" as="geometry" />
        </mxCell>
        <mxCell id="exdaTwkjRSABiNrKdRwK-91" style="edgeStyle=orthogonalEdgeStyle;rounded=0;orthogonalLoop=1;jettySize=auto;html=1;" parent="1" source="exdaTwkjRSABiNrKdRwK-92" edge="1">
          <mxGeometry relative="1" as="geometry">
            <mxPoint x="696" y="1000" as="targetPoint" />
            <Array as="points">
              <mxPoint x="1140" y="861" />
              <mxPoint x="1136" y="861" />
              <mxPoint x="1136" y="850" />
              <mxPoint x="696" y="850" />
            </Array>
          </mxGeometry>
        </mxCell>
        <mxCell id="exdaTwkjRSABiNrKdRwK-92" value="i++" style="whiteSpace=wrap;html=1;" parent="1" vertex="1">
          <mxGeometry x="1080" y="979.9999999999995" width="120" height="60" as="geometry" />
        </mxCell>
        <mxCell id="exdaTwkjRSABiNrKdRwK-93" value="" style="edgeStyle=orthogonalEdgeStyle;rounded=0;orthogonalLoop=1;jettySize=auto;html=1;" parent="1" source="exdaTwkjRSABiNrKdRwK-94" target="exdaTwkjRSABiNrKdRwK-97" edge="1">
          <mxGeometry relative="1" as="geometry" />
        </mxCell>
        <mxCell id="exdaTwkjRSABiNrKdRwK-94" value="add_value&lt;br&gt;add_index" style="shape=parallelogram;perimeter=parallelogramPerimeter;whiteSpace=wrap;html=1;fixedSize=1;" parent="1" vertex="1">
          <mxGeometry x="530" y="1340" width="176" height="100" as="geometry" />
        </mxCell>
        <mxCell id="exdaTwkjRSABiNrKdRwK-95" value="" style="edgeStyle=orthogonalEdgeStyle;rounded=0;orthogonalLoop=1;jettySize=auto;html=1;" parent="1" source="exdaTwkjRSABiNrKdRwK-97" target="exdaTwkjRSABiNrKdRwK-99" edge="1">
          <mxGeometry relative="1" as="geometry" />
        </mxCell>
        <mxCell id="exdaTwkjRSABiNrKdRwK-96" value="" style="edgeStyle=orthogonalEdgeStyle;rounded=0;orthogonalLoop=1;jettySize=auto;html=1;" parent="1" source="exdaTwkjRSABiNrKdRwK-97" target="exdaTwkjRSABiNrKdRwK-114" edge="1">
          <mxGeometry relative="1" as="geometry" />
        </mxCell>
        <mxCell id="exdaTwkjRSABiNrKdRwK-97" value="add_index&amp;gt;current" style="rhombus;whiteSpace=wrap;html=1;" parent="1" vertex="1">
          <mxGeometry x="839" y="1330" width="186" height="120" as="geometry" />
        </mxCell>
        <mxCell id="exdaTwkjRSABiNrKdRwK-98" value="" style="edgeStyle=orthogonalEdgeStyle;rounded=0;orthogonalLoop=1;jettySize=auto;html=1;" parent="1" source="exdaTwkjRSABiNrKdRwK-99" target="exdaTwkjRSABiNrKdRwK-102" edge="1">
          <mxGeometry relative="1" as="geometry" />
        </mxCell>
        <mxCell id="exdaTwkjRSABiNrKdRwK-99" value="i=0" style="whiteSpace=wrap;html=1;" parent="1" vertex="1">
          <mxGeometry x="1138" y="1360" width="120" height="60" as="geometry" />
        </mxCell>
        <mxCell id="exdaTwkjRSABiNrKdRwK-100" value="" style="edgeStyle=orthogonalEdgeStyle;rounded=0;orthogonalLoop=1;jettySize=auto;html=1;" parent="1" source="exdaTwkjRSABiNrKdRwK-102" target="exdaTwkjRSABiNrKdRwK-104" edge="1">
          <mxGeometry relative="1" as="geometry" />
        </mxCell>
        <mxCell id="exdaTwkjRSABiNrKdRwK-101" value="" style="edgeStyle=orthogonalEdgeStyle;rounded=0;orthogonalLoop=1;jettySize=auto;html=1;" parent="1" source="exdaTwkjRSABiNrKdRwK-102" target="exdaTwkjRSABiNrKdRwK-112" edge="1">
          <mxGeometry relative="1" as="geometry" />
        </mxCell>
        <mxCell id="exdaTwkjRSABiNrKdRwK-102" value="i&amp;gt;=add_value" style="rhombus;whiteSpace=wrap;html=1;" parent="1" vertex="1">
          <mxGeometry x="1351" y="1345" width="152" height="90" as="geometry" />
        </mxCell>
        <mxCell id="exdaTwkjRSABiNrKdRwK-103" value="" style="edgeStyle=orthogonalEdgeStyle;rounded=0;orthogonalLoop=1;jettySize=auto;html=1;" parent="1" source="exdaTwkjRSABiNrKdRwK-104" target="exdaTwkjRSABiNrKdRwK-106" edge="1">
          <mxGeometry relative="1" as="geometry" />
        </mxCell>
        <mxCell id="exdaTwkjRSABiNrKdRwK-104" value="a[i]=a[i-1]" style="whiteSpace=wrap;html=1;" parent="1" vertex="1">
          <mxGeometry x="1606" y="1357.5" width="154" height="65" as="geometry" />
        </mxCell>
        <mxCell id="exdaTwkjRSABiNrKdRwK-105" value="" style="edgeStyle=orthogonalEdgeStyle;rounded=0;orthogonalLoop=1;jettySize=auto;html=1;" parent="1" source="exdaTwkjRSABiNrKdRwK-106" target="exdaTwkjRSABiNrKdRwK-110" edge="1">
          <mxGeometry relative="1" as="geometry">
            <mxPoint x="2050" y="1404" as="targetPoint" />
          </mxGeometry>
        </mxCell>
        <mxCell id="exdaTwkjRSABiNrKdRwK-106" value="i==add_value" style="rhombus;whiteSpace=wrap;html=1;" parent="1" vertex="1">
          <mxGeometry x="1877" y="1343.75" width="113" height="92.5" as="geometry" />
        </mxCell>
        <mxCell id="exdaTwkjRSABiNrKdRwK-107" style="edgeStyle=orthogonalEdgeStyle;rounded=0;orthogonalLoop=1;jettySize=auto;html=1;" parent="1" source="exdaTwkjRSABiNrKdRwK-108" edge="1">
          <mxGeometry relative="1" as="geometry">
            <mxPoint x="1310" y="1400" as="targetPoint" />
            <Array as="points">
              <mxPoint x="2360" y="1280" />
              <mxPoint x="1310" y="1280" />
            </Array>
          </mxGeometry>
        </mxCell>
        <mxCell id="exdaTwkjRSABiNrKdRwK-108" value="i--" style="whiteSpace=wrap;html=1;" parent="1" vertex="1">
          <mxGeometry x="2280" y="1360" width="120" height="60" as="geometry" />
        </mxCell>
        <mxCell id="exdaTwkjRSABiNrKdRwK-109" style="edgeStyle=orthogonalEdgeStyle;rounded=0;orthogonalLoop=1;jettySize=auto;html=1;entryX=0;entryY=0.5;entryDx=0;entryDy=0;" parent="1" source="exdaTwkjRSABiNrKdRwK-110" target="exdaTwkjRSABiNrKdRwK-108" edge="1">
          <mxGeometry relative="1" as="geometry" />
        </mxCell>
        <mxCell id="exdaTwkjRSABiNrKdRwK-110" value="a[i]=add_value" style="rounded=1;whiteSpace=wrap;html=1;" parent="1" vertex="1">
          <mxGeometry x="2067.9999999999995" y="1360" width="120" height="60" as="geometry" />
        </mxCell>
        <mxCell id="exdaTwkjRSABiNrKdRwK-111" style="edgeStyle=orthogonalEdgeStyle;rounded=0;orthogonalLoop=1;jettySize=auto;html=1;" parent="1" source="exdaTwkjRSABiNrKdRwK-112" edge="1">
          <mxGeometry relative="1" as="geometry">
            <mxPoint x="1670" y="820" as="targetPoint" />
            <Array as="points">
              <mxPoint x="2791" y="1568" />
              <mxPoint x="2791" y="820" />
            </Array>
          </mxGeometry>
        </mxCell>
        <mxCell id="exdaTwkjRSABiNrKdRwK-112" value="countArrange=0" style="whiteSpace=wrap;html=1;" parent="1" vertex="1">
          <mxGeometry x="1344" y="1557.5" width="166" height="65" as="geometry" />
        </mxCell>
        <mxCell id="exdaTwkjRSABiNrKdRwK-113" style="edgeStyle=orthogonalEdgeStyle;rounded=0;orthogonalLoop=1;jettySize=auto;html=1;entryX=0;entryY=0.5;entryDx=0;entryDy=0;" parent="1" source="exdaTwkjRSABiNrKdRwK-114" target="exdaTwkjRSABiNrKdRwK-112" edge="1">
          <mxGeometry relative="1" as="geometry" />
        </mxCell>
        <mxCell id="exdaTwkjRSABiNrKdRwK-114" value="a[add_value]=add_index" style="whiteSpace=wrap;html=1;" parent="1" vertex="1">
          <mxGeometry x="856" y="1560" width="152" height="60" as="geometry" />
        </mxCell>
        <mxCell id="exdaTwkjRSABiNrKdRwK-115" value="" style="edgeStyle=orthogonalEdgeStyle;rounded=0;orthogonalLoop=1;jettySize=auto;html=1;" parent="1" source="exdaTwkjRSABiNrKdRwK-116" target="exdaTwkjRSABiNrKdRwK-117" edge="1">
          <mxGeometry relative="1" as="geometry" />
        </mxCell>
        <mxCell id="exdaTwkjRSABiNrKdRwK-116" value="update_index, update_value" style="shape=parallelogram;perimeter=parallelogramPerimeter;whiteSpace=wrap;html=1;fixedSize=1;" parent="1" vertex="1">
          <mxGeometry x="513" y="1760" width="267" height="80" as="geometry" />
        </mxCell>
        <mxCell id="exdaTwkjRSABiNrKdRwK-117" value="a[update_index]=update_value" style="whiteSpace=wrap;html=1;" parent="1" vertex="1">
          <mxGeometry x="933.5" y="1770" width="236.5" height="60" as="geometry" />
        </mxCell>
        <mxCell id="exdaTwkjRSABiNrKdRwK-118" value="" style="edgeStyle=orthogonalEdgeStyle;rounded=0;orthogonalLoop=1;jettySize=auto;html=1;" parent="1" source="exdaTwkjRSABiNrKdRwK-119" target="exdaTwkjRSABiNrKdRwK-121" edge="1">
          <mxGeometry relative="1" as="geometry" />
        </mxCell>
        <mxCell id="exdaTwkjRSABiNrKdRwK-119" value="deleteInxdex" style="shape=parallelogram;perimeter=parallelogramPerimeter;whiteSpace=wrap;html=1;fixedSize=1;" parent="1" vertex="1">
          <mxGeometry x="513" y="2139.9999999999995" width="120" height="60" as="geometry" />
        </mxCell>
        <mxCell id="exdaTwkjRSABiNrKdRwK-120" value="" style="edgeStyle=orthogonalEdgeStyle;rounded=0;orthogonalLoop=1;jettySize=auto;html=1;" parent="1" source="exdaTwkjRSABiNrKdRwK-121" target="exdaTwkjRSABiNrKdRwK-124" edge="1">
          <mxGeometry relative="1" as="geometry" />
        </mxCell>
        <mxCell id="exdaTwkjRSABiNrKdRwK-121" value="i=detele_index-1" style="whiteSpace=wrap;html=1;" parent="1" vertex="1">
          <mxGeometry x="716.5" y="2135" width="197" height="70" as="geometry" />
        </mxCell>
        <mxCell id="exdaTwkjRSABiNrKdRwK-122" value="" style="edgeStyle=orthogonalEdgeStyle;rounded=0;orthogonalLoop=1;jettySize=auto;html=1;" parent="1" source="exdaTwkjRSABiNrKdRwK-124" target="exdaTwkjRSABiNrKdRwK-126" edge="1">
          <mxGeometry relative="1" as="geometry" />
        </mxCell>
        <mxCell id="exdaTwkjRSABiNrKdRwK-123" style="edgeStyle=orthogonalEdgeStyle;rounded=0;orthogonalLoop=1;jettySize=auto;html=1;" parent="1" source="exdaTwkjRSABiNrKdRwK-124" edge="1">
          <mxGeometry relative="1" as="geometry">
            <mxPoint x="2795" y="1470" as="targetPoint" />
            <Array as="points">
              <mxPoint x="1114" y="2400" />
              <mxPoint x="2795" y="2400" />
            </Array>
          </mxGeometry>
        </mxCell>
        <mxCell id="exdaTwkjRSABiNrKdRwK-124" value="i&amp;lt;curent-1" style="rhombus;whiteSpace=wrap;html=1;" parent="1" vertex="1">
          <mxGeometry x="1058.75" y="2117.5" width="131.5" height="105" as="geometry" />
        </mxCell>
        <mxCell id="exdaTwkjRSABiNrKdRwK-125" style="edgeStyle=orthogonalEdgeStyle;rounded=0;orthogonalLoop=1;jettySize=auto;html=1;" parent="1" source="exdaTwkjRSABiNrKdRwK-126" edge="1">
          <mxGeometry relative="1" as="geometry">
            <mxPoint x="1010" y="2170" as="targetPoint" />
            <Array as="points">
              <mxPoint x="1353" y="2090" />
              <mxPoint x="1010" y="2090" />
            </Array>
          </mxGeometry>
        </mxCell>
        <mxCell id="exdaTwkjRSABiNrKdRwK-126" value="a[i]=a[i+1]" style="whiteSpace=wrap;html=1;" parent="1" vertex="1">
          <mxGeometry x="1260" y="2148.75" width="174.25" height="42.5" as="geometry" />
        </mxCell>
        <mxCell id="exdaTwkjRSABiNrKdRwK-127" value="" style="edgeStyle=orthogonalEdgeStyle;rounded=0;orthogonalLoop=1;jettySize=auto;html=1;" parent="1" source="exdaTwkjRSABiNrKdRwK-128" target="exdaTwkjRSABiNrKdRwK-131" edge="1">
          <mxGeometry relative="1" as="geometry" />
        </mxCell>
        <mxCell id="exdaTwkjRSABiNrKdRwK-128" value="choice" style="shape=parallelogram;perimeter=parallelogramPerimeter;whiteSpace=wrap;html=1;fixedSize=1;" parent="1" vertex="1">
          <mxGeometry x="570" y="2812" width="120" height="60" as="geometry" />
        </mxCell>
        <mxCell id="exdaTwkjRSABiNrKdRwK-129" value="" style="edgeStyle=orthogonalEdgeStyle;rounded=0;orthogonalLoop=1;jettySize=auto;html=1;" parent="1" source="exdaTwkjRSABiNrKdRwK-131" target="exdaTwkjRSABiNrKdRwK-133" edge="1">
          <mxGeometry relative="1" as="geometry" />
        </mxCell>
        <mxCell id="exdaTwkjRSABiNrKdRwK-130" value="" style="edgeStyle=orthogonalEdgeStyle;rounded=0;orthogonalLoop=1;jettySize=auto;html=1;" parent="1" source="exdaTwkjRSABiNrKdRwK-131" target="exdaTwkjRSABiNrKdRwK-135" edge="1">
          <mxGeometry relative="1" as="geometry" />
        </mxCell>
        <mxCell id="exdaTwkjRSABiNrKdRwK-131" value="choice==1" style="rhombus;whiteSpace=wrap;html=1;" parent="1" vertex="1">
          <mxGeometry x="790" y="2802" width="80" height="80" as="geometry" />
        </mxCell>
        <mxCell id="exdaTwkjRSABiNrKdRwK-132" value="" style="edgeStyle=orthogonalEdgeStyle;rounded=0;orthogonalLoop=1;jettySize=auto;html=1;" parent="1" source="exdaTwkjRSABiNrKdRwK-133" target="exdaTwkjRSABiNrKdRwK-137" edge="1">
          <mxGeometry relative="1" as="geometry" />
        </mxCell>
        <mxCell id="exdaTwkjRSABiNrKdRwK-133" value="choice==2" style="rhombus;whiteSpace=wrap;html=1;" parent="1" vertex="1">
          <mxGeometry x="790" y="2962" width="80" height="80" as="geometry" />
        </mxCell>
        <mxCell id="exdaTwkjRSABiNrKdRwK-134" style="edgeStyle=orthogonalEdgeStyle;rounded=0;orthogonalLoop=1;jettySize=auto;html=1;" parent="1" source="exdaTwkjRSABiNrKdRwK-141" edge="1">
          <mxGeometry relative="1" as="geometry">
            <mxPoint x="2790" y="2386.6666666666665" as="targetPoint" />
          </mxGeometry>
        </mxCell>
        <mxCell id="exdaTwkjRSABiNrKdRwK-135" value="increase(a,current)" style="whiteSpace=wrap;html=1;" parent="1" vertex="1">
          <mxGeometry x="930" y="2812" width="120" height="60" as="geometry" />
        </mxCell>
        <mxCell id="exdaTwkjRSABiNrKdRwK-136" style="edgeStyle=orthogonalEdgeStyle;rounded=0;orthogonalLoop=1;jettySize=auto;html=1;exitX=1;exitY=0.5;exitDx=0;exitDy=0;" parent="1" source="exdaTwkjRSABiNrKdRwK-137" edge="1">
          <mxGeometry relative="1" as="geometry">
            <mxPoint x="1338" y="2882" as="targetPoint" />
            <mxPoint x="1138" y="3044" as="sourcePoint" />
          </mxGeometry>
        </mxCell>
        <mxCell id="exdaTwkjRSABiNrKdRwK-137" value="decrease(a,current)" style="whiteSpace=wrap;html=1;" parent="1" vertex="1">
          <mxGeometry x="930" y="2972" width="120" height="60" as="geometry" />
        </mxCell>
        <mxCell id="exdaTwkjRSABiNrKdRwK-138" value="" style="edgeStyle=orthogonalEdgeStyle;rounded=0;orthogonalLoop=1;jettySize=auto;html=1;" parent="1" source="exdaTwkjRSABiNrKdRwK-139" target="exdaTwkjRSABiNrKdRwK-143" edge="1">
          <mxGeometry relative="1" as="geometry" />
        </mxCell>
        <mxCell id="exdaTwkjRSABiNrKdRwK-139" value="choice==7" style="rhombus;whiteSpace=wrap;html=1;" parent="1" vertex="1">
          <mxGeometry x="374" y="3259.9999999999995" width="80" height="80" as="geometry" />
        </mxCell>
        <mxCell id="exdaTwkjRSABiNrKdRwK-140" value="" style="edgeStyle=orthogonalEdgeStyle;rounded=0;orthogonalLoop=1;jettySize=auto;html=1;" parent="1" source="exdaTwkjRSABiNrKdRwK-135" target="exdaTwkjRSABiNrKdRwK-141" edge="1">
          <mxGeometry relative="1" as="geometry">
            <mxPoint x="2790" y="2386.6666666666665" as="targetPoint" />
            <mxPoint x="1050" y="2842" as="sourcePoint" />
          </mxGeometry>
        </mxCell>
        <mxCell id="exdaTwkjRSABiNrKdRwK-141" value="countArrange=1" style="rounded=1;whiteSpace=wrap;html=1;" parent="1" vertex="1">
          <mxGeometry x="1292.88" y="2822" width="120" height="60" as="geometry" />
        </mxCell>
        <mxCell id="exdaTwkjRSABiNrKdRwK-142" value="" style="edgeStyle=orthogonalEdgeStyle;rounded=0;orthogonalLoop=1;jettySize=auto;html=1;" parent="1" source="exdaTwkjRSABiNrKdRwK-143" target="exdaTwkjRSABiNrKdRwK-146" edge="1">
          <mxGeometry relative="1" as="geometry" />
        </mxCell>
        <mxCell id="exdaTwkjRSABiNrKdRwK-143" value="fiindValue" style="shape=parallelogram;perimeter=parallelogramPerimeter;whiteSpace=wrap;html=1;fixedSize=1;" parent="1" vertex="1">
          <mxGeometry x="570" y="3269.9999999999995" width="120" height="60" as="geometry" />
        </mxCell>
        <mxCell id="exdaTwkjRSABiNrKdRwK-144" value="" style="edgeStyle=orthogonalEdgeStyle;rounded=0;orthogonalLoop=1;jettySize=auto;html=1;" parent="1" source="exdaTwkjRSABiNrKdRwK-146" target="exdaTwkjRSABiNrKdRwK-148" edge="1">
          <mxGeometry relative="1" as="geometry" />
        </mxCell>
        <mxCell id="exdaTwkjRSABiNrKdRwK-145" value="" style="edgeStyle=orthogonalEdgeStyle;rounded=0;orthogonalLoop=1;jettySize=auto;html=1;" parent="1" source="exdaTwkjRSABiNrKdRwK-146" target="exdaTwkjRSABiNrKdRwK-161" edge="1">
          <mxGeometry relative="1" as="geometry" />
        </mxCell>
        <mxCell id="exdaTwkjRSABiNrKdRwK-146" value="countArrange==0" style="rhombus;whiteSpace=wrap;html=1;" parent="1" vertex="1">
          <mxGeometry x="790" y="3260" width="150" height="100" as="geometry" />
        </mxCell>
        <mxCell id="exdaTwkjRSABiNrKdRwK-147" value="" style="edgeStyle=orthogonalEdgeStyle;rounded=0;orthogonalLoop=1;jettySize=auto;html=1;" parent="1" source="exdaTwkjRSABiNrKdRwK-148" target="exdaTwkjRSABiNrKdRwK-150" edge="1">
          <mxGeometry relative="1" as="geometry" />
        </mxCell>
        <mxCell id="exdaTwkjRSABiNrKdRwK-148" value="i=0" style="whiteSpace=wrap;html=1;" parent="1" vertex="1">
          <mxGeometry x="1035" y="3280" width="120" height="60" as="geometry" />
        </mxCell>
        <mxCell id="exdaTwkjRSABiNrKdRwK-149" value="" style="edgeStyle=orthogonalEdgeStyle;rounded=0;orthogonalLoop=1;jettySize=auto;html=1;" parent="1" source="exdaTwkjRSABiNrKdRwK-150" target="exdaTwkjRSABiNrKdRwK-154" edge="1">
          <mxGeometry relative="1" as="geometry" />
        </mxCell>
        <mxCell id="exdaTwkjRSABiNrKdRwK-150" value="i&amp;lt;current" style="rhombus;whiteSpace=wrap;html=1;" parent="1" vertex="1">
          <mxGeometry x="1255" y="3270" width="80" height="80" as="geometry" />
        </mxCell>
        <mxCell id="exdaTwkjRSABiNrKdRwK-151" style="edgeStyle=orthogonalEdgeStyle;rounded=0;orthogonalLoop=1;jettySize=auto;html=1;entryX=0;entryY=0.5;entryDx=0;entryDy=0;" parent="1" source="exdaTwkjRSABiNrKdRwK-154" target="exdaTwkjRSABiNrKdRwK-156" edge="1">
          <mxGeometry relative="1" as="geometry" />
        </mxCell>
        <mxCell id="exdaTwkjRSABiNrKdRwK-152" value="true" style="edgeLabel;html=1;align=center;verticalAlign=middle;resizable=0;points=[];" parent="exdaTwkjRSABiNrKdRwK-151" vertex="1" connectable="0">
          <mxGeometry x="0.0252" y="3" relative="1" as="geometry">
            <mxPoint as="offset" />
          </mxGeometry>
        </mxCell>
        <mxCell id="exdaTwkjRSABiNrKdRwK-153" style="edgeStyle=orthogonalEdgeStyle;rounded=0;orthogonalLoop=1;jettySize=auto;html=1;entryX=0;entryY=0;entryDx=0;entryDy=0;" parent="1" source="exdaTwkjRSABiNrKdRwK-159" target="exdaTwkjRSABiNrKdRwK-150" edge="1">
          <mxGeometry relative="1" as="geometry">
            <mxPoint x="1200" y="3300" as="targetPoint" />
            <Array as="points">
              <mxPoint x="1275" y="3150" />
            </Array>
          </mxGeometry>
        </mxCell>
        <mxCell id="exdaTwkjRSABiNrKdRwK-154" value="a[i]==find_value" style="rhombus;whiteSpace=wrap;html=1;" parent="1" vertex="1">
          <mxGeometry x="1440" y="3260" width="145" height="100" as="geometry" />
        </mxCell>
        <mxCell id="exdaTwkjRSABiNrKdRwK-155" style="edgeStyle=orthogonalEdgeStyle;rounded=0;orthogonalLoop=1;jettySize=auto;html=1;" parent="1" source="exdaTwkjRSABiNrKdRwK-156" edge="1">
          <mxGeometry relative="1" as="geometry">
            <mxPoint x="2795" y="2800" as="targetPoint" />
          </mxGeometry>
        </mxCell>
        <mxCell id="exdaTwkjRSABiNrKdRwK-156" value="i" style="shape=parallelogram;perimeter=parallelogramPerimeter;whiteSpace=wrap;html=1;fixedSize=1;" parent="1" vertex="1">
          <mxGeometry x="1800" y="3280" width="120" height="60" as="geometry" />
        </mxCell>
        <mxCell id="exdaTwkjRSABiNrKdRwK-157" value="" style="edgeStyle=orthogonalEdgeStyle;rounded=0;orthogonalLoop=1;jettySize=auto;html=1;entryX=0;entryY=0;entryDx=0;entryDy=0;" parent="1" source="exdaTwkjRSABiNrKdRwK-154" target="exdaTwkjRSABiNrKdRwK-159" edge="1">
          <mxGeometry relative="1" as="geometry">
            <mxPoint x="1275" y="3290" as="targetPoint" />
            <mxPoint x="1540" y="3279" as="sourcePoint" />
            <Array as="points">
              <mxPoint x="1540" y="3150" />
            </Array>
          </mxGeometry>
        </mxCell>
        <mxCell id="exdaTwkjRSABiNrKdRwK-158" value="false" style="edgeLabel;html=1;align=center;verticalAlign=middle;resizable=0;points=[];" parent="exdaTwkjRSABiNrKdRwK-157" vertex="1" connectable="0">
          <mxGeometry x="-0.5773" y="3" relative="1" as="geometry">
            <mxPoint y="-1" as="offset" />
          </mxGeometry>
        </mxCell>
        <mxCell id="exdaTwkjRSABiNrKdRwK-159" value="i++" style="rounded=1;whiteSpace=wrap;html=1;" parent="1" vertex="1">
          <mxGeometry x="1410" y="3130" width="120" height="60" as="geometry" />
        </mxCell>
        <mxCell id="exdaTwkjRSABiNrKdRwK-160" value="" style="edgeStyle=orthogonalEdgeStyle;rounded=0;orthogonalLoop=1;jettySize=auto;html=1;" parent="1" source="exdaTwkjRSABiNrKdRwK-166" target="exdaTwkjRSABiNrKdRwK-164" edge="1">
          <mxGeometry relative="1" as="geometry" />
        </mxCell>
        <mxCell id="exdaTwkjRSABiNrKdRwK-161" value="start=0,end=curent,check" style="whiteSpace=wrap;html=1;" parent="1" vertex="1">
          <mxGeometry x="805" y="3460" width="275" height="190" as="geometry" />
        </mxCell>
        <mxCell id="exdaTwkjRSABiNrKdRwK-162" value="" style="edgeStyle=orthogonalEdgeStyle;rounded=0;orthogonalLoop=1;jettySize=auto;html=1;" parent="1" source="exdaTwkjRSABiNrKdRwK-164" target="exdaTwkjRSABiNrKdRwK-168" edge="1">
          <mxGeometry relative="1" as="geometry" />
        </mxCell>
        <mxCell id="exdaTwkjRSABiNrKdRwK-163" value="" style="edgeStyle=orthogonalEdgeStyle;rounded=0;orthogonalLoop=1;jettySize=auto;html=1;" parent="1" source="exdaTwkjRSABiNrKdRwK-164" target="exdaTwkjRSABiNrKdRwK-171" edge="1">
          <mxGeometry relative="1" as="geometry" />
        </mxCell>
        <mxCell id="exdaTwkjRSABiNrKdRwK-164" value="a[check]==findValue" style="rhombus;whiteSpace=wrap;html=1;" parent="1" vertex="1">
          <mxGeometry x="860" y="3940" width="157.5" height="130" as="geometry" />
        </mxCell>
        <mxCell id="exdaTwkjRSABiNrKdRwK-165" value="" style="edgeStyle=orthogonalEdgeStyle;rounded=0;orthogonalLoop=1;jettySize=auto;html=1;" parent="1" source="exdaTwkjRSABiNrKdRwK-161" target="exdaTwkjRSABiNrKdRwK-166" edge="1">
          <mxGeometry relative="1" as="geometry">
            <mxPoint x="943" y="3650" as="sourcePoint" />
            <mxPoint x="939" y="3940" as="targetPoint" />
          </mxGeometry>
        </mxCell>
        <mxCell id="exdaTwkjRSABiNrKdRwK-166" value="check=(start+end/2)" style="rounded=1;whiteSpace=wrap;html=1;" parent="1" vertex="1">
          <mxGeometry x="880" y="3730" width="120" height="60" as="geometry" />
        </mxCell>
        <mxCell id="exdaTwkjRSABiNrKdRwK-167" style="edgeStyle=orthogonalEdgeStyle;rounded=0;orthogonalLoop=1;jettySize=auto;html=1;" parent="1" source="exdaTwkjRSABiNrKdRwK-168" edge="1">
          <mxGeometry relative="1" as="geometry">
            <mxPoint x="2790" y="2798" as="targetPoint" />
          </mxGeometry>
        </mxCell>
        <mxCell id="exdaTwkjRSABiNrKdRwK-168" value="a[check]" style="shape=parallelogram;perimeter=parallelogramPerimeter;whiteSpace=wrap;html=1;fixedSize=1;" parent="1" vertex="1">
          <mxGeometry x="1440" y="3972.5" width="120" height="65" as="geometry" />
        </mxCell>
        <mxCell id="exdaTwkjRSABiNrKdRwK-169" style="edgeStyle=orthogonalEdgeStyle;rounded=0;orthogonalLoop=1;jettySize=auto;html=1;entryX=1;entryY=0.5;entryDx=0;entryDy=0;" parent="1" source="exdaTwkjRSABiNrKdRwK-171" target="exdaTwkjRSABiNrKdRwK-173" edge="1">
          <mxGeometry relative="1" as="geometry" />
        </mxCell>
        <mxCell id="exdaTwkjRSABiNrKdRwK-170" value="" style="edgeStyle=orthogonalEdgeStyle;rounded=0;orthogonalLoop=1;jettySize=auto;html=1;entryX=0.5;entryY=0;entryDx=0;entryDy=0;" parent="1" source="exdaTwkjRSABiNrKdRwK-171" target="exdaTwkjRSABiNrKdRwK-175" edge="1">
          <mxGeometry relative="1" as="geometry">
            <mxPoint x="938.75" y="4480" as="targetPoint" />
          </mxGeometry>
        </mxCell>
        <mxCell id="exdaTwkjRSABiNrKdRwK-171" value="a[check]=find_value" style="rhombus;whiteSpace=wrap;html=1;" parent="1" vertex="1">
          <mxGeometry x="818.75" y="4205" width="240" height="190" as="geometry" />
        </mxCell>
        <mxCell id="exdaTwkjRSABiNrKdRwK-172" style="edgeStyle=orthogonalEdgeStyle;rounded=0;orthogonalLoop=1;jettySize=auto;html=1;" parent="1" source="exdaTwkjRSABiNrKdRwK-173" edge="1">
          <mxGeometry relative="1" as="geometry">
            <mxPoint x="940" y="3690" as="targetPoint" />
            <Array as="points">
              <mxPoint x="508" y="3680" />
              <mxPoint x="940" y="3680" />
            </Array>
          </mxGeometry>
        </mxCell>
        <mxCell id="exdaTwkjRSABiNrKdRwK-173" value="end=check-1" style="rounded=1;whiteSpace=wrap;html=1;" parent="1" vertex="1">
          <mxGeometry x="383" y="4240" width="250" height="120" as="geometry" />
        </mxCell>
        <mxCell id="exdaTwkjRSABiNrKdRwK-174" style="edgeStyle=orthogonalEdgeStyle;rounded=0;orthogonalLoop=1;jettySize=auto;html=1;" parent="1" source="exdaTwkjRSABiNrKdRwK-175" edge="1">
          <mxGeometry relative="1" as="geometry">
            <mxPoint x="510" y="3700" as="targetPoint" />
            <Array as="points">
              <mxPoint x="181" y="4635" />
              <mxPoint x="181" y="3700" />
            </Array>
          </mxGeometry>
        </mxCell>
        <mxCell id="exdaTwkjRSABiNrKdRwK-175" value="start=check+1" style="rounded=1;whiteSpace=wrap;html=1;" parent="1" vertex="1">
          <mxGeometry x="720" y="4580" width="190" height="110" as="geometry" />
        </mxCell>
      </root>
    </mxGraphModel>
  </diagram>
</mxfile>
